<?xml version="1.0" encoding="utf-8"?>
<!-- Generator: Adobe Illustrator 22.1.0, SVG Export Plug-In . SVG Version: 6.00 Build 0)  -->
<svg version="1.1" id="Capa_1" xmlns="http://www.w3.org/2000/svg" xmlns:xlink="http://www.w3.org/1999/xlink" x="0px" y="0px"
	 viewBox="0 0 24 24" style="enable-background:new 0 0 24 24;" xml:space="preserve">
<style type="text/css">
	.st0{fill:#FFFFFF;}
</style>
<path class="st0" d="M21,12c-0.6,0-1,0.4-1,1v6c0,0.6-0.4,1-1,1H5c-0.6,0-1-0.4-1-1V5c0-0.6,0.4-1,1-1h6c0.6,0,1-0.4,1-1s-0.4-1-1-1
	H5C3.3,2,2,3.3,2,5v14c0,1.7,1.3,3,3,3h14c1.7,0,3-1.3,3-3v-6C22,12.4,21.6,12,21,12z M6,12.8V17c0,0.6,0.4,1,1,1h4.2
	c0.3,0,0.5-0.1,0.7-0.3l6.9-6.9l0,0L21.7,8c0.4-0.4,0.4-1,0-1.4l0,0l-4.2-4.3c-0.4-0.4-1-0.4-1.4,0l0,0l-2.8,2.8l0,0l-7,6.9
	C6.1,12.2,6,12.5,6,12.8z M16.8,4.4l2.8,2.8l-1.4,1.4l-2.8-2.8L16.8,4.4z M8,13.2l5.9-5.9l2.8,2.8L10.8,16H8V13.2z"/>
</svg>
